<svg xmlns="http://www.w3.org/2000/svg" viewBox="0 0 49.65 42.42"><defs><style>.cls-1{fill-rule:evenodd;}</style></defs><title>basket</title><g id="Ebene_2" data-name="Ebene 2"><g id="Ebene_1-2" data-name="Ebene 1"><path class="cls-1" d="M3.18,21.48a12.45,12.45,0,0,1-1.32-.14,2.4,2.4,0,0,1,.53-4.74c1.68,0,3.37,0,5.06,0l.31,0c0,.48,0,.94,0,1.39a4.59,4.59,0,0,0,8.48,2c.61-1,1.18-2,1.74-3a.67.67,0,0,1,.69-.41q6.15,0,12.29,0a.66.66,0,0,1,.68.41c.51.93,1,1.84,1.57,2.75a4.59,4.59,0,0,0,8.58-3c0-.05,0-.1,0-.19,1.59,0,3.17,0,4.74,0a6.4,6.4,0,0,1,1.16,0,2.37,2.37,0,0,1,1.94,2.46,2.4,2.4,0,0,1-2.25,2.31,8.94,8.94,0,0,1-.9,0c-.57,2.12-1.12,4.21-1.68,6.29L41.67,39.56a3.84,3.84,0,0,1-3.73,2.86H11.79A3.88,3.88,0,0,1,8,39.49Q5.61,30.72,3.3,21.93ZM37.67,32.25h0V27.3a1.38,1.38,0,1,0-2.75,0V37.34a1.37,1.37,0,0,0,1.39,1.51,1.39,1.39,0,0,0,1.36-1.54Zm-15.3.06h0c0-1.69,0-3.38,0-5.07a1.38,1.38,0,1,0-2.74,0c0,3.38,0,6.75,0,10.13a1.85,1.85,0,0,0,.19.8,1.32,1.32,0,0,0,1.49.65,1.38,1.38,0,0,0,1.05-1.4C22.38,35.71,22.37,34,22.37,32.31Zm4.92-.06c0,1.76,0,3.52,0,5.28a1.33,1.33,0,0,0,1.25,1.32A1.34,1.34,0,0,0,30,37.68a2.53,2.53,0,0,0,0-.47c0-3.31,0-6.61,0-9.91a2,2,0,0,0-.14-.77,1.32,1.32,0,0,0-1.51-.77,1.35,1.35,0,0,0-1.07,1.33C27.28,28.81,27.29,30.53,27.29,32.25Zm-12.56,0h0c0-1.7,0-3.41,0-5.11a1.34,1.34,0,0,0-1.4-1.44A1.36,1.36,0,0,0,12,27.21c0,.75,0,1.51,0,2.26,0,2.66,0,5.31,0,8a1.34,1.34,0,0,0,1.47,1.42,1.39,1.39,0,0,0,1.25-1.55C14.74,35.63,14.73,34,14.73,32.29Z"/><path class="cls-1" d="M12.32,20a2.38,2.38,0,0,1-2-3.62c1.53-2.71,3.1-5.39,4.65-8.08q2-3.52,4.05-7a2.39,2.39,0,0,1,3.33-.9,2.42,2.42,0,0,1,.79,3.4L19,10.91c-1.48,2.57-2.95,5.14-4.44,7.71A2.33,2.33,0,0,1,12.32,20Z"/><path class="cls-1" d="M37.25,20a2.44,2.44,0,0,1-2.13-1.32l-4.93-8.58q-1.86-3.21-3.71-6.43A2.41,2.41,0,0,1,30,.47a2.84,2.84,0,0,1,.72.82c2.88,5,5.74,10,8.62,15a2.44,2.44,0,0,1,.14,2.37A2.3,2.3,0,0,1,37.25,20Z"/></g></g></svg>